<?xml version="1.0" standalone="no"?>
<!DOCTYPE svg PUBLIC "-//W3C//DTD SVG 20010904//EN"
 "http://www.w3.org/TR/2001/REC-SVG-20010904/DTD/svg10.dtd">
<svg version="1.0" xmlns="http://www.w3.org/2000/svg"
 width="1500.000000pt" height="1500.000000pt" viewBox="0 0 1500.000000 1500.000000"
 preserveAspectRatio="xMidYMid meet">
<metadata>
Created by potrace 1.14, written by Peter Selinger 2001-2017
</metadata>
<g transform="translate(0.000000,1500.000000) scale(0.100000,-0.100000)"
fill="#000000" stroke="none">
<path d="M6108 14615 c-1 -2 -32 -6 -68 -10 -36 -3 -85 -11 -110 -17 -25 -5
-56 -12 -70 -14 -143 -27 -409 -140 -563 -241 -230 -150 -364 -273 -525 -480
-9 -12 -25 -32 -35 -45 -83 -105 -187 -271 -267 -423 -34 -66 -82 -156 -105
-200 -23 -44 -50 -105 -60 -135 -10 -30 -19 -58 -22 -62 -2 -4 -20 4 -40 17
-43 30 -99 33 -170 9 -48 -15 -294 -132 -303 -144 -3 -3 -29 -21 -58 -39 -163
-103 -404 -321 -577 -521 -26 -30 -59 -68 -74 -85 -14 -16 -78 -105 -141 -196
-114 -164 -122 -176 -160 -234 -10 -16 -22 -35 -27 -41 -18 -23 -34 -50 -39
-66 -4 -10 -10 -18 -15 -18 -5 0 -9 -7 -9 -15 0 -8 -4 -15 -8 -15 -4 0 -13
-12 -20 -27 -6 -16 -21 -41 -31 -58 -11 -16 -28 -46 -38 -65 -9 -19 -22 -38
-27 -42 -6 -4 -7 -8 -3 -8 4 0 -1 -10 -12 -22 -11 -11 -18 -25 -15 -30 3 -4 0
-8 -6 -8 -6 0 -8 -4 -5 -10 3 -5 2 -10 -2 -10 -5 0 -15 -16 -22 -35 -7 -19
-17 -35 -22 -35 -5 0 -9 -7 -9 -15 0 -17 -20 -56 -33 -66 -5 -3 -8 -8 -7 -10
1 -2 -14 -40 -35 -84 -36 -80 -52 -114 -85 -190 -28 -63 -147 -367 -155 -395
-4 -14 -13 -38 -20 -55 -28 -65 -144 -431 -161 -509 -7 -31 -9 -39 -17 -61 -3
-11 -8 -31 -11 -45 -2 -14 -14 -63 -26 -110 -26 -106 -28 -113 -40 -180 -6
-30 -13 -66 -16 -80 -3 -14 -7 -41 -10 -60 -2 -19 -11 -69 -19 -110 -19 -99
-26 -140 -30 -170 -2 -21 -28 -163 -40 -220 -2 -8 -15 -73 -29 -145 -15 -71
-34 -159 -42 -194 -15 -62 -19 -77 -29 -122 -8 -38 -87 -324 -117 -424 -16
-55 -31 -109 -33 -119 -5 -20 -32 -110 -42 -136 -3 -8 -7 -19 -8 -25 -9 -37
-30 -112 -51 -180 -13 -44 -51 -179 -85 -300 -33 -121 -78 -276 -99 -345 -53
-171 -84 -283 -118 -430 -30 -123 -37 -156 -47 -215 -3 -16 -7 -41 -10 -55 -6
-34 -25 -149 -30 -180 -2 -14 -6 -54 -10 -90 -4 -36 -8 -81 -10 -100 -24 -215
-24 -591 -1 -770 3 -19 7 -58 10 -86 3 -29 7 -62 10 -75 3 -13 7 -43 10 -65 7
-59 60 -264 94 -364 86 -251 254 -563 377 -696 6 -6 30 -35 55 -65 25 -29 54
-63 65 -74 11 -11 52 -56 90 -100 39 -44 79 -89 90 -101 23 -24 37 -41 121
-144 80 -97 172 -233 196 -290 25 -58 68 -180 63 -180 -2 0 3 -23 10 -51 45
-171 -53 -434 -192 -515 -18 -10 -33 -23 -34 -29 0 -5 -2 -18 -4 -29 -2 -10 7
-28 21 -41 28 -26 57 -23 134 14 119 56 362 288 452 432 44 70 99 241 112 349
14 116 -3 293 -35 352 -5 10 -6 18 -2 18 4 0 2 5 -5 12 -7 7 -12 20 -12 29 0
23 -86 193 -129 254 -54 78 -130 165 -200 230 -197 182 -284 280 -324 360 -23
47 -59 169 -72 245 -31 184 -33 224 -29 500 2 157 6 301 8 320 2 19 7 62 10
95 14 132 20 175 51 335 35 186 120 461 191 625 10 22 18 42 19 45 7 31 183
384 211 425 13 18 14 17 9 -17 -10 -71 -14 -103 -20 -153 -4 -27 -8 -57 -10
-65 -3 -8 -7 -33 -10 -55 -3 -22 -7 -53 -10 -70 -15 -99 -24 -175 -40 -347
-13 -144 -19 -318 -18 -563 0 -249 3 -309 17 -420 3 -22 8 -67 11 -99 3 -33 8
-69 10 -80 3 -12 7 -37 10 -56 21 -156 72 -350 166 -632 74 -222 159 -412 290
-648 23 -41 51 -93 63 -115 11 -22 23 -42 26 -45 3 -3 19 -27 34 -55 16 -27
73 -117 126 -200 247 -383 366 -608 409 -777 27 -104 34 -167 34 -288 0 -86
-4 -114 -21 -153 -22 -48 -31 -82 -37 -142 -2 -16 -4 -30 -5 -30 -7 0 -6 -36
0 -40 5 -3 7 -15 5 -27 -3 -11 4 -57 13 -102 10 -45 17 -100 16 -123 -3 -41
-78 -269 -130 -393 -60 -145 -200 -287 -346 -354 -31 -14 -59 -26 -63 -26 -12
0 -43 -36 -47 -55 -3 -11 2 -32 9 -47 31 -64 224 -72 393 -16 36 12 66 21 67
20 2 -1 19 7 38 18 l35 20 -2 -33 c-1 -17 -7 -35 -13 -39 -6 -5 -5 -8 3 -8 10
0 10 -5 2 -20 -8 -14 -8 -20 0 -20 6 0 8 -5 4 -11 -10 -17 -12 -79 -2 -85 5
-3 5 -11 0 -17 -5 -7 -13 -41 -16 -77 -4 -36 -9 -78 -11 -95 -3 -16 -7 -52
-10 -80 -7 -77 -15 -147 -21 -182 l-5 -33 4345 0 4345 0 16 52 c33 114 56 265
58 383 1 74 -9 222 -18 265 -3 14 -10 50 -15 80 -23 123 -113 425 -173 580
-43 113 -110 257 -126 273 -5 5 2 19 15 32 16 16 24 36 24 57 0 50 -56 218
-72 218 -4 0 -8 5 -8 11 0 17 -93 139 -135 177 -21 18 -35 34 -34 36 66 41
268 205 371 299 55 51 85 70 107 72 19 2 78 35 158 89 169 113 175 118 194
138 9 10 20 18 24 18 4 0 15 8 24 18 9 9 32 30 51 46 85 69 358 338 411 406
33 41 64 80 69 87 6 7 15 24 22 38 6 14 15 25 20 25 4 0 8 5 8 11 0 6 10 25
22 41 30 43 180 349 208 428 24 66 57 130 72 141 76 53 390 352 441 420 198
262 323 590 362 944 14 124 17 168 20 310 5 268 -50 538 -165 800 -23 53 -42
98 -41 102 0 1 -20 39 -45 83 -24 44 -44 82 -44 85 0 12 -164 278 -215 350
-49 67 -59 88 -64 137 -8 65 -11 66 73 -12 97 -90 164 -166 259 -290 69 -92
188 -285 202 -329 11 -37 89 -64 122 -43 20 12 33 60 28 100 -6 48 -25 180
-31 212 -2 14 -6 43 -9 65 -3 22 -7 51 -10 65 -3 14 -8 41 -11 60 -14 87 -56
254 -89 354 -68 206 -164 386 -284 536 -65 81 -93 114 -166 194 -7 7 -11 126
-11 321 -1 274 -6 419 -18 520 -13 103 -18 137 -47 300 -11 61 -22 123 -24
139 -9 57 -53 260 -69 311 -2 6 -6 24 -10 40 -4 17 -12 41 -17 55 -5 14 -11
34 -14 45 -2 11 -8 34 -14 52 -5 17 -7 34 -3 37 3 3 0 6 -6 6 -7 0 -12 8 -12
18 0 15 -20 82 -37 122 -3 8 -5 19 -4 24 1 4 -2 13 -7 20 -5 6 -12 23 -16 38
-3 15 -11 40 -18 55 -6 15 -12 35 -14 44 -2 9 -9 29 -15 45 -7 16 -11 33 -10
38 1 5 -5 16 -13 25 -8 9 -15 19 -16 23 -2 17 -12 44 -26 71 -8 15 -13 27 -9
27 3 0 -1 13 -9 29 -9 16 -12 31 -9 35 4 3 2 6 -4 6 -10 0 -26 36 -24 53 1 4
-4 7 -11 7 -6 0 -9 3 -6 6 3 3 -12 41 -33 86 -22 44 -41 85 -42 91 -1 7 -4 14
-7 17 -9 9 -34 65 -32 73 1 4 -2 7 -8 7 -6 0 -9 3 -8 8 3 10 -85 186 -94 190
-5 2 -6 8 -2 13 3 5 0 9 -6 9 -6 0 -9 4 -6 9 4 5 3 11 -1 13 -9 3 -104 189
-103 201 0 4 15 22 34 40 51 48 57 71 34 142 -24 72 -103 236 -126 261 -9 11
-29 35 -43 54 -15 19 -47 55 -72 80 l-44 45 28 36 c33 42 46 93 43 167 -4 109
-69 225 -201 363 -73 77 -93 104 -98 135 -7 41 -37 115 -58 142 -39 50 -105
106 -150 126 -64 29 -125 53 -152 60 -11 3 -36 29 -55 58 -73 107 -164 185
-228 193 -15 1 -31 3 -35 4 -5 0 -6 10 -2 20 3 11 8 28 10 38 10 49 48 184 67
233 11 30 22 68 25 84 3 16 8 39 12 50 11 32 0 152 -19 200 -18 46 -23 61 -22
69 1 4 -2 7 -7 7 -5 0 -14 13 -20 28 -14 33 -65 89 -106 117 -50 34 -96 52
-201 80 -39 11 -66 25 -75 38 -24 37 -97 104 -143 131 -84 49 -247 51 -372 5
-33 -12 -63 -25 -69 -29 -5 -5 -27 -11 -47 -15 -29 -5 -56 0 -123 25 -75 29
-93 32 -147 26 -95 -10 -246 -102 -347 -211 -39 -42 -111 -176 -111 -205 0 -6
-12 -3 -27 8 -24 17 -235 112 -249 112 -2 0 -23 9 -47 19 -44 20 -261 101
-387 146 -148 51 -519 148 -693 181 -44 8 -62 12 -62 14 0 1 -9 3 -20 5 -11 1
-56 10 -100 18 -84 17 -123 23 -190 33 -22 3 -51 8 -65 10 -23 4 -43 7 -145
18 -22 3 -58 7 -80 10 -163 22 -285 30 -475 29 -91 -1 -181 -3 -200 -7 -98
-15 -209 -43 -220 -56 -3 -3 -22 -14 -42 -24 l-38 -19 -97 32 c-106 33 -272
77 -331 86 -42 7 -378 16 -384 10z m5557 -1449 c7 3 15 1 19 -4 3 -5 -5 -7
-17 -6 -12 1 -28 3 -35 3 -7 1 -10 6 -6 12 4 7 10 7 16 1 6 -6 16 -8 23 -6z
m-8118 -8758 c-3 -7 -5 -2 -5 12 0 14 2 19 5 13 2 -7 2 -19 0 -25z m1506
-1767 c4 -17 2 -18 -14 -8 -13 8 -15 13 -6 19 7 4 13 8 13 8 1 0 4 -9 7 -19z"/>
</g>
</svg>
